<svg width="162" height="30" viewBox="0 0 162 30" fill="none" xmlns="http://www.w3.org/2000/svg">
<g filter="url(#filter0_i_1_45)">
<path d="M7.48195 2.63667V3.09L8.972 4.45L1.45835 27.5167L0 28.8767V29.3033H9.16221V28.8767L7.70387 27.5167L7.9892 26.6633L16.4222 21.7567L18.1976 27.5167L16.7076 28.8767V29.3033H25.8698V28.8767L24.4114 27.5167L17.3416 4.45L18.8 3.09V2.63667H7.48195ZM13.0934 10.93L14.8054 16.53L10.462 19.0633L13.0934 10.93Z" fill="#FA4776"/>
<path d="M29.0468 6.21V6.63667L30.5051 7.99667V25.9433L29.0468 27.2767V27.73H37.9871V27.2767L36.5287 25.9433V21.73L46.8006 15.7567L46.8323 8.69L42.6157 6.21H29.0468ZM36.5287 11.2767H39.7942L40.8087 11.8633V13.09L36.5287 15.57V11.2767Z" fill="#FA4776"/>
<path d="M51.4681 6.21V6.63667L52.9264 7.99667V25.9167L51.4681 27.2767V27.7033H58.9501V16.6633L66.2101 27.7033H73.7237V27.2767L72.2337 25.9167V7.99667L73.7237 6.63667V6.21H66.2101V17.25L58.9818 6.21H51.4681Z" fill="#FA4776"/>
<path d="M82.6942 6.21V6.63667L84.1843 7.99667L78.3509 25.9167L76.8926 27.2767V27.7033H86.0548V27.2767L84.5964 25.9167L84.8501 25.1167L92.015 20.93L93.5684 25.9167L92.0784 27.2767V27.7033H101.241V27.2767L99.7822 25.9167L94.2976 7.99667L95.7559 6.63667V6.21H82.6942ZM89.1934 11.73L90.4298 15.7033L87.3229 17.5167L89.1934 11.73Z" fill="#FA4776"/>
<path d="M104.608 0V7.08H105.179L106.998 5.7H113.382V27.99L111.741 29.49V30H121.835V29.49L120.158 27.99V5.7H126.578L128.397 7.08H128.968V0H104.608Z" fill="#FA4776"/>
<path d="M132.549 0V0.479999L134.189 2.01L143.284 30H151.452L160.012 2.01L161.652 0.479999V0H151.345V0.479999L153.021 2.01L147.279 20.67L141.216 2.01L142.856 0.479999V0H132.549Z" fill="#FA4776"/>
</g>
<defs>
<filter id="filter0_i_1_45" x="0" y="0" width="161.652" height="34" filterUnits="userSpaceOnUse" color-interpolation-filters="sRGB">
<feFlood flood-opacity="0" result="BackgroundImageFix"/>
<feBlend mode="normal" in="SourceGraphic" in2="BackgroundImageFix" result="shape"/>
<feColorMatrix in="SourceAlpha" type="matrix" values="0 0 0 0 0 0 0 0 0 0 0 0 0 0 0 0 0 0 127 0" result="hardAlpha"/>
<feOffset dy="4"/>
<feGaussianBlur stdDeviation="2"/>
<feComposite in2="hardAlpha" operator="arithmetic" k2="-1" k3="1"/>
<feColorMatrix type="matrix" values="0 0 0 0 0 0 0 0 0 0 0 0 0 0 0 0 0 0 0.35 0"/>
<feBlend mode="normal" in2="shape" result="effect1_innerShadow_1_45"/>
</filter>
</defs>
</svg>
